<?xml version="1.0" encoding="UTF-8"?>
<!-- Generated by Pixelmator Pro 2.4.5 -->
<svg width="73" height="71" viewBox="0 0 73 71" xmlns="http://www.w3.org/2000/svg" xmlns:xlink="http://www.w3.org/1999/xlink">
    <g id="Group">
        <linearGradient id="linearGradient1" x1="38.3725" y1="2.9467" x2="38.3725" y2="66.8911" gradientUnits="userSpaceOnUse">
            <stop offset="1e-05" stop-color="#1e6495" stop-opacity="1"/>
            <stop offset="1" stop-color="#3fa8bb" stop-opacity="1"/>
        </linearGradient>
        <path id="Path" fill="url(#linearGradient1)" stroke="none" d="M 63.599998 18.700001 C 63.900002 14.400002 62.599998 10.200001 59.799999 7.200001 C 57.400002 4.599998 54.099998 3.099998 50.599998 3 C 44.100002 2.900002 28.9 3 25.300001 3 C 23 3 22.300001 4.5 22.1 5.700005 C 21.1 12.599998 19.9 20.799999 18.700001 28.700001 L 20.300001 28.700001 C 21.5 21.200001 22.6 13.700001 23.700001 6.200005 C 23.9 5.099998 24.4 4.900002 25.300001 4.900002 C 35.400002 4.900002 40.5 4.800003 50.599998 4.900002 C 57.599998 5 62.5 11.5 61.900002 18.799999 C 61.299999 26.200001 54.5 33.399998 47 34.899998 C 46.799999 34.899998 46.599998 35 46.400002 35 L 46.400002 35 C 46.900002 35 47.299999 35.100002 47.700001 35.200001 C 57.900002 38.000004 59.599998 48.5 54.299999 56.699997 C 50.700001 62.300003 45.599998 65 39.400002 65.099998 C 34.900002 65.199997 20.9 65.199997 15.900001 65.199997 C 14.7 65.199997 14.5 64.800003 14.7 63.699997 C 15.8 57.199997 17.800001 44.5 18.4 41.199997 L 16.799999 41.199997 C 15.7 48.300003 14.4 56.599998 13.2 63.5 C 13.1 64 12.9 65.199997 13.7 66 C 14.4 66.800003 15.400001 66.900002 15.900001 66.900002 C 16 66.900002 36.400002 66.800003 39.5 66.800003 C 46.400002 66.699997 51.799999 63.599998 55.700001 57.699997 C 59.099998 52.400002 60 46.400002 58.099998 41.800003 C 57.200001 39.599998 55.299999 36.900002 51.400002 35.100002 C 57.900002 32 63 25.399998 63.599998 18.700001 Z"/>
        <path id="path1" fill="#1e6495" stroke="none" d="M 47.599998 35.200001 C 46.900002 35 46.099998 34.899998 45.299999 35.300003 C 44.200001 35.900002 43.099998 36.500004 42 37.100002 C 36.599998 39.900002 31.1 42.599998 25.699999 45.400002 C 24.199999 46.199997 24 45.699997 24.199999 44.400002 C 24.299999 43.699997 24.5 42.199997 24.6 41.300003 L 18.4 41.300003 C 17.9 44.5 15.8 57.300003 14.7 63.799999 C 14.5 65 14.7 65.300003 15.9 65.300003 C 20.9 65.199997 34.899998 65.199997 39.399998 65.199997 C 45.599998 65.099998 50.599998 62.400002 54.299999 56.800003 C 59.599998 48.5 57.799999 38.000004 47.599998 35.200001 Z"/>
        <path id="path2" fill="#3fa8bb" stroke="none" d="M 50.5 4.900002 C 40.400002 4.799995 35.400002 4.900002 25.200001 4.900002 C 24.200001 4.900002 23.700001 5.199997 23.6 6.199997 C 22.5 13.700001 21.300001 21.200001 20.200001 28.700001 L 26.700001 28.700001 C 26.9 27.700001 27.1 26.700001 27.200001 25.700001 C 27.5 23.700001 27.6 23.700001 29.1 24.599998 C 34.5 28 40.200001 31.099998 45.5 34.799999 C 45.900002 35.099998 46.400002 35 46.900002 34.899998 C 54.5 33.399998 61.200001 26.200001 61.799999 18.799999 C 62.400002 11.5 57.5 5 50.5 4.900002 Z"/>
    </g>
</svg>
