<?xml version="1.0" encoding="UTF-8" standalone="no"?>
<!DOCTYPE svg PUBLIC "-//W3C//DTD SVG 1.1//EN" "http://www.w3.org/Graphics/SVG/1.1/DTD/svg11.dtd">
<svg width="100%" height="100%" viewBox="0 0 1267 213" version="1.1" xmlns="http://www.w3.org/2000/svg" xmlns:xlink="http://www.w3.org/1999/xlink" xml:space="preserve" xmlns:serif="http://www.serif.com/" style="fill-rule:evenodd;clip-rule:evenodd;stroke-linejoin:round;stroke-miterlimit:2;">
    <g transform="matrix(1,0,0,1,-29.3613,-34.7855)">
        <g transform="matrix(4.16667,0,0,4.16667,39.2327,9.58298)">
            <g transform="matrix(1.12481,0,0,1.12481,-7.55675,-4.04092)">
                <path d="M13.774,54.212L13.774,37.151L19.714,37.151C23.821,37.151 26.981,36.962 29.192,36.519C30.772,36.14 32.352,35.445 33.868,34.371C35.448,33.297 36.711,31.78 37.722,29.885C38.733,27.989 39.239,25.651 39.239,22.871C39.239,19.269 38.354,16.363 36.648,14.088C34.879,11.813 32.731,10.297 30.14,9.665C28.434,9.222 24.832,8.97 19.272,8.97L4.612,8.97L4.612,54.212L13.774,54.212ZM18.198,16.615C21.42,16.615 23.632,16.742 24.706,16.931C26.222,17.184 27.423,17.879 28.371,18.953C29.319,20.027 29.824,21.354 29.824,23.06C29.824,24.387 29.508,25.525 28.813,26.536C28.118,27.547 27.17,28.305 25.97,28.811C24.769,29.253 22.368,29.506 18.766,29.506L13.774,29.506L13.774,16.615L18.198,16.615Z" style="fill-rule:nonzero;"/>
            </g>
        </g>
        <g transform="matrix(4.16667,0,0,4.16667,39.2327,9.58298)">
            <g transform="matrix(1.12481,0,0,1.12481,-7.55675,-4.04092)">
                <path d="M64.703,8.97L55.035,8.97L37.469,54.212L47.137,54.212L50.928,43.912L69.063,43.912L72.981,54.212L82.838,54.212L64.703,8.97ZM53.708,36.267L59.838,19.522L66.093,36.267L53.708,36.267Z" style="fill-rule:nonzero;"/>
            </g>
        </g>
        <g transform="matrix(4.16667,0,0,4.16667,39.2327,9.58298)">
            <g transform="matrix(1.12481,0,0,1.12481,-7.55675,-4.04092)">
                <path d="M103.005,54.212L103.005,35.256L119.623,8.97L109.071,8.97L98.645,26.915L87.967,8.97L77.288,8.97L93.843,35.192L93.843,54.212L103.005,54.212Z" style="fill-rule:nonzero;"/>
            </g>
        </g>
        <g transform="matrix(4.16667,0,0,4.16667,39.2327,9.58298)">
            <g transform="matrix(1.12481,0,0,1.12481,-7.55675,-4.04092)">
                <path d="M158.418,54.212L158.418,46.566L133.206,46.566L133.206,34.308L155.828,34.308L155.828,26.662L133.206,26.662L133.206,16.615L157.534,16.615L157.534,8.97L124.044,8.97L124.044,54.212L158.418,54.212Z" style="fill:rgb(87,177,220);fill-rule:nonzero;"/>
            </g>
        </g>
        <g transform="matrix(4.16667,0,0,4.16667,39.2327,9.58298)">
            <g transform="matrix(1.12481,0,0,1.12481,-7.55675,-4.04092)">
                <path d="M200.564,54.212L200.564,46.566L175.352,46.566L175.352,34.308L197.974,34.308L197.974,26.662L175.352,26.662L175.352,16.615L199.68,16.615L199.68,8.97L166.19,8.97L166.19,54.212L200.564,54.212Z" style="fill:rgb(87,177,220);fill-rule:nonzero;"/>
            </g>
        </g>
        <g transform="matrix(4.16667,0,0,4.16667,39.2327,9.58298)">
            <g transform="matrix(1.12481,0,0,1.12481,-7.55675,-4.04092)">
                <path d="M217.499,54.212L217.499,35.319L219.331,35.319C221.479,35.319 222.996,35.508 223.944,35.824C224.955,36.14 225.839,36.772 226.724,37.72C227.609,38.605 229.188,40.816 231.589,44.355L238.098,54.212L249.029,54.212L243.532,45.366C241.32,41.89 239.614,39.426 238.35,38.036C237.023,36.646 235.444,35.382 233.485,34.245C237.403,33.676 240.372,32.286 242.394,30.074C244.353,27.863 245.364,25.019 245.364,21.67C245.364,18.953 244.732,16.615 243.405,14.53C242.078,12.445 240.309,10.992 238.098,10.17C235.949,9.349 232.411,8.97 227.545,8.97L208.336,8.97L208.336,54.212L217.499,54.212ZM217.499,16.615L224.639,16.615C228.304,16.615 230.578,16.679 231.273,16.742C232.79,16.994 233.927,17.626 234.749,18.574C235.57,19.459 235.949,20.723 235.949,22.239C235.949,23.629 235.633,24.767 235.001,25.651C234.433,26.536 233.548,27.168 232.474,27.547C231.4,27.926 228.62,28.115 224.26,28.115L217.499,28.115L217.499,16.615Z" style="fill:rgb(87,177,220);fill-rule:nonzero;"/>
            </g>
        </g>
        <g transform="matrix(4.16667,0,0,4.16667,39.2327,9.58298)">
            <g transform="matrix(1.12481,0,0,1.12481,-7.55675,-4.04092)">
                <path d="M265.57,38.834C265.57,37.834 265.262,37.154 264.651,36.814C264.037,36.471 263.053,36.299 261.703,36.299L259.622,36.299L259.622,41.302L261.821,41.302C262.854,41.302 263.629,41.2 264.144,40.994C265.094,40.618 265.57,39.897 265.57,38.834ZM262.021,34.637C263.736,34.637 264.994,34.802 265.793,35.133C267.223,35.729 267.936,36.895 267.936,38.636C267.936,39.87 267.485,40.782 266.588,41.364C266.112,41.672 265.447,41.892 264.589,42.029C265.673,42.201 266.461,42.654 266.962,43.388C267.462,44.115 267.713,44.827 267.713,45.526L267.713,46.534C267.713,46.856 267.722,47.199 267.746,47.563C267.771,47.925 267.813,48.166 267.866,48.283L267.952,48.454L265.673,48.454C265.659,48.406 265.651,48.361 265.638,48.317C265.624,48.269 265.618,48.22 265.604,48.159L265.553,47.716L265.553,46.622C265.553,45.03 265.117,43.976 264.249,43.463C263.736,43.168 262.833,43.016 261.54,43.016L259.622,43.016L259.622,48.454L257.187,48.454L257.187,34.637L262.021,34.637ZM262.262,30.746C259.278,30.746 256.732,31.808 254.616,33.934C252.516,36.05 251.463,38.601 251.463,41.597C251.463,44.614 252.509,47.185 254.6,49.312C256.704,51.436 259.255,52.498 262.262,52.498C265.268,52.498 267.818,51.436 269.923,49.312C272.028,47.185 273.077,44.614 273.077,41.597C273.077,38.601 272.028,36.05 269.923,33.934C267.813,31.808 265.254,30.746 262.262,30.746ZM274.86,41.578C274.86,45.067 273.632,48.043 271.175,50.51C268.717,52.978 265.748,54.213 262.262,54.213C258.775,54.213 255.813,52.978 253.366,50.51C250.932,48.052 249.715,45.075 249.715,41.578C249.715,38.114 250.945,35.157 253.399,32.7C255.848,30.255 258.799,29.032 262.262,29.032C265.748,29.032 268.717,30.255 271.175,32.7C273.632,35.145 274.86,38.108 274.86,41.578Z" style="fill-rule:nonzero;"/>
            </g>
        </g>
    </g>
</svg>
