<?xml version="1.0" encoding="UTF-8"?>
<svg xmlns="http://www.w3.org/2000/svg" xmlns:xlink="http://www.w3.org/1999/xlink" width="480.6pt" height="480.6pt" viewBox="0 0 480.6 480.6" version="1.1">
<g id="surface1">
<path style=" stroke:none;fill-rule:evenodd;fill:rgb(94.139099%,6.272888%,6.272888%);fill-opacity:1;" d="M 240.335938 -0.03125 C 373.035156 -0.03125 480.609375 107.539063 480.609375 240.238281 C 480.609375 372.9375 373.035156 480.507813 240.335938 480.507813 C 107.640625 480.507813 0.0664063 372.9375 0.0664063 240.238281 C 0.0664063 107.539063 107.640625 -0.03125 240.335938 -0.03125 Z M 240.335938 -0.03125 "/>
<path style=" stroke:none;fill-rule:evenodd;fill:rgb(100%,100%,100%);fill-opacity:1;" d="M 230.105469 162.34375 L 209.75 162.34375 C 206.417969 161.964844 202.347656 161.964844 198.28125 161.601563 C 197.175781 161.964844 196.792969 163.089844 196.421875 164.566406 C 196.054688 166.050781 196.421875 167.160156 197.175781 168.265625 L 201.613281 168.640625 C 207.152344 169.738281 211.222656 170.851563 213.828125 171.972656 C 216.410156 173.445313 218.253906 176.039063 219.003906 179.371094 C 219.742188 182.703125 220.109375 187.136719 219.742188 192.695313 C 219.363281 200.464844 219.003906 209.710938 218.632813 220.445313 C 218.253906 231.191406 217.519531 242.289063 216.773438 253.769531 C 216.042969 271.515625 214.449219 314.753906 209.625 327.554688 C 208.507813 330.515625 206.664063 332.371094 204.441406 333.496094 C 201.84375 334.589844 198.871094 335.703125 195.171875 336.085938 L 189.234375 336.824219 C 188.128906 337.554688 187.753906 338.679688 188.128906 340.53125 C 188.128906 341.644531 188.496094 342.746094 189.609375 343.863281 C 194.421875 343.496094 198.871094 343.121094 203.691406 342.746094 L 232.980469 342.746094 C 238.53125 343.121094 243.355469 343.496094 247.800781 343.863281 C 248.917969 343.121094 249.65625 342.011719 249.65625 340.53125 C 249.65625 339.039063 249.289063 337.933594 248.167969 336.824219 L 237.796875 336.085938 C 234.453125 335.703125 231.859375 334.96875 230.011719 333.496094 C 229.082031 332.742188 228.335938 331.710938 227.78125 330.453125 C 225.59375 325.191406 225.546875 316.289063 225.660156 310.761719 C 225.898438 299.289063 226.039063 287.820313 226.402344 276.34375 C 226.773438 264.871094 227.144531 254.867188 227.507813 246.359375 C 227.867188 238.589844 228.628906 230.4375 228.988281 222.296875 C 229.359375 214.164063 229.722656 206.011719 230.105469 197.871094 L 230.839844 197.871094 C 233.804688 204.160156 236.769531 210.453125 239.359375 217.484375 C 242.324219 224.152344 245.28125 230.816406 248.234375 237.113281 L 273.035156 290.023438 C 275.269531 294.480469 277.851563 300.03125 280.804688 306.691406 C 284.144531 313.722656 287.464844 320.378906 290.433594 327.039063 C 292 330.566406 293.355469 333.871094 294.503906 336.980469 C 294.800781 336.980469 296.875 343.800781 297.105469 344.59375 C 298.53125 346.039063 300.867188 346.003906 302.296875 344.59375 C 304.597656 339.078125 307 333.496094 309.675781 328.160156 C 316.6875 312.425781 324 297.398438 332.257813 282.265625 L 356.316406 234.519531 C 358.171875 230.4375 360.015625 225.996094 362.605469 221.191406 C 365.199219 216.011719 367.785156 211.199219 370.011719 207.128906 C 371.859375 202.683594 373.335938 199.726563 374.070313 198.613281 L 374.445313 198.613281 L 375.195313 312.992188 C 375.554688 318.90625 375.195313 323.328125 374.824219 326.664063 C 374.527344 329.3125 373.78125 331.828125 371.238281 333.121094 C 369.746094 334.96875 366.785156 335.703125 361.96875 336.085938 L 353.8125 336.824219 C 353.070313 337.554688 352.703125 338.679688 353.070313 340.53125 C 353.070313 341.644531 353.445313 342.746094 354.5625 343.863281 C 360.113281 343.496094 366.035156 343.121094 371.597656 342.746094 L 403.484375 342.746094 C 409.035156 343.121094 414.59375 343.496094 420.167969 343.863281 C 421.28125 343.121094 421.644531 342.011719 421.644531 340.53125 C 422.011719 339.039063 421.644531 337.933594 420.90625 336.824219 L 412.007813 336.085938 C 407.929688 335.703125 404.964844 334.589844 403.101563 332.738281 C 401.269531 330.890625 399.78125 328.664063 399.410156 325.699219 C 399.03125 322.371094 398.660156 318.28125 398.660156 313.839844 C 397.902344 300.070313 397.386719 286.078125 397.027344 272.277344 C 396.652344 257.453125 395.910156 243.402344 395.546875 230.089844 L 395.546875 194.914063 C 395.546875 188.621094 395.910156 183.8125 396.652344 180.105469 C 397.40625 176.78125 399.253906 173.824219 401.835938 171.972656 C 404.433594 170.492188 408.867188 169.371094 414.789063 168.640625 L 420.347656 168.265625 C 421.09375 167.523438 421.457031 166.414063 421.09375 164.566406 C 421.09375 163.449219 420.71875 162.34375 419.980469 161.601563 C 415.535156 161.964844 411.089844 161.964844 407.023438 162.34375 L 387.039063 162.34375 C 383.699219 161.964844 379.992188 161.964844 375.195313 161.601563 C 374.824219 167.882813 372.601563 174.929688 369.269531 183.074219 C 365.199219 191.570313 360.394531 201.953125 354.472656 214.164063 L 328.554688 266.34375 C 321.835938 280.550781 315.714844 294.070313 307.480469 307.539063 L 306.742188 307.539063 C 300.191406 295.179688 294.152344 282.355469 288.210938 269.683594 L 256.757813 206.753906 C 252.691406 197.871094 248.984375 189.367188 246.023438 181.59375 C 243.429688 173.824219 242.324219 167.160156 242.691406 161.601563 C 238.253906 161.964844 234.175781 161.964844 230.105469 162.34375 Z M 78.234375 303.039063 C 78.234375 312.464844 77.863281 319.640625 77.109375 324.554688 C 76.363281 334.070313 70.082031 337.1875 61.226563 337.796875 L 55.554688 338.550781 C 53.730469 340.382813 53.871094 344.351563 55.949219 345.722656 C 67.644531 344.996094 78.21875 344.585938 89.953125 344.585938 C 102.464844 344.585938 114.128906 345.136719 126.601563 345.722656 C 127.355469 344.96875 127.746094 343.835938 128.121094 342.328125 C 128.121094 340.441406 127.746094 339.296875 126.984375 338.550781 L 119.425781 337.796875 C 113.378906 337.40625 109.226563 336.273438 106.960938 334.382813 C 106.824219 334.285156 106.6875 334.183594 106.554688 334.078125 C 104.269531 332.179688 102.632813 329.28125 101.945313 324.789063 C 101.195313 319.882813 100.816406 312.71875 101.195313 303.304688 L 101.195313 276.871094 C 92.890625 277.253906 85.347656 276.871094 78.550781 275.742188 Z M 54.019531 165.195313 C 53.648438 166.699219 54.40625 167.828125 55.539063 168.96875 L 65.351563 170.085938 C 69.496094 170.476563 72.519531 171.601563 74.402344 173.492188 C 76.285156 174.996094 77.425781 177.644531 77.796875 181.789063 C 78.179688 185.9375 78.550781 191.988281 78.550781 199.898438 L 78.550781 255.742188 C 86.097656 256.121094 93.640625 256.121094 101.195313 255.742188 L 101.195313 178.769531 C 100.816406 175.753906 101.195313 173.492188 101.945313 171.601563 C 102.320313 170.476563 103.832031 169.328125 105.714844 168.96875 C 107.980469 168.589844 111.761719 168.589844 116.664063 168.589844 C 130.996094 168.96875 141.941406 172.734375 149.863281 180.660156 C 157.410156 188.574219 161.179688 199.523438 161.179688 213.117188 C 161.570313 225.183594 158.546875 235.371094 152.132813 243.664063 C 146.472656 250.847656 138.171875 256.121094 126.847656 258.761719 C 115.910156 261.40625 100.441406 262.539063 79.683594 262.152344 C 61.570313 261.796875 41.953125 260.65625 20.445313 258.394531 C 44.222656 263.296875 61.949219 266.6875 73.277344 267.816406 C 91.753906 270.09375 109.867188 269.703125 126.847656 267.074219 C 135.523438 265.929688 143.449219 263.675781 150.621094 261.035156 C 157.410156 258.019531 164.207031 253.867188 171.375 248.953125 C 175.523438 245.941406 179.296875 241.019531 182.699219 234.617188 C 185.34375 228.578125 186.847656 221.410156 187.21875 212.726563 C 186.847656 203.289063 184.582031 195.007813 180.4375 187.828125 C 176.28125 180.660156 171.375 174.996094 164.957031 170.859375 C 158.546875 167.078125 150.621094 164.050781 141.566406 162.164063 C 132.886719 160.660156 122.695313 159.902344 111.003906 159.902344 C 99.679688 159.902344 89.492188 159.902344 80.441406 160.277344 C 71.382813 160.660156 63.082031 161.035156 55.90625 161.789063 C 54.78125 162.550781 54.019531 163.679688 54.019531 165.195313 Z M 54.019531 165.195313 "/>
</g>
</svg>
