<?xml version="1.0" encoding="iso-8859-1"?>
<!-- Generator: Adobe Illustrator 19.1.1, SVG Export Plug-In . SVG Version: 6.00 Build 0)  -->
<svg version="1.1" id="Layer_1" xmlns="http://www.w3.org/2000/svg" xmlns:xlink="http://www.w3.org/1999/xlink" x="0px" y="0px"
	 viewBox="0 0 48 48" enable-background="new 0 0 48 48" xml:space="preserve">
<path fill="#3F51B5" d="M45,35c0,2.208-1.791,4-4,4H7c-2.209,0-4-1.792-4-4V13c0-2.21,1.791-4,4-4h34c2.209,0,4,1.79,4,4V35z"/>
<path fill="#FFC107" d="M16,21c0,0.553-0.447,1-1,1h-5c-0.553,0-1-0.447-1-1v-4c0-0.553,0.447-1,1-1h5c0.553,0,1,0.447,1,1V21z
	 M15,26H9v2h6V26z M23,31H9v2h14V31z M23,26h-6v2h6V26z M31,26h-6v2h6V26z M39,26h-6v2h6V26z"/>
<rect x="20" y="16" fill="#9FA8DA" width="19" height="4"/>
</svg>
