<?xml version="1.0" encoding="iso-8859-1"?>
<!-- Generator: Adobe Illustrator 19.0.0, SVG Export Plug-In . SVG Version: 6.00 Build 0)  -->
<svg version="1.1" id="Layer_1" xmlns="http://www.w3.org/2000/svg" xmlns:xlink="http://www.w3.org/1999/xlink" x="0px" y="0px"
	 viewBox="0 0 511.999 511.999" style="enable-background:new 0 0 511.999 511.999;" xml:space="preserve">
<path style="fill:#4BAF78;" d="M466.903,404.105H45.096c-20.586,0-37.274-16.688-37.274-37.274V145.167
	c0-20.586,16.688-37.274,37.274-37.274h421.807c20.586,0,37.274,16.688,37.274,37.274v221.664
	C504.177,387.418,487.489,404.105,466.903,404.105z"/>
<rect x="352.065" y="332.059" style="fill:#FCBB3B;" width="112.084" height="32.023"/>
<rect x="352.065" y="332.059" style="fill:#BD8C2C;" width="48.032" height="32.023"/>
<path style="fill:#1E834E;" d="M95.886,404.105H45.096c-20.586,0-37.274-16.688-37.274-37.274V145.167
	c0-20.586,16.688-37.274,37.274-37.274h258.938"/>
<rect x="55.854" y="147.922" style="fill:#FCBB3B;" width="80.053" height="64.042"/>
<rect x="55.854" y="147.922" style="fill:#BD8C2C;" width="40.032" height="64.042"/>
<path d="M466.903,411.928H45.096C20.231,411.928,0,391.698,0,366.831V145.167c0-24.867,20.231-45.096,45.096-45.096h421.806
	c24.867,0,45.096,20.231,45.096,45.096v221.664C512,391.698,491.769,411.928,466.903,411.928z M45.096,115.716
	c-16.239,0-29.451,13.212-29.451,29.451v221.664c0,16.239,13.212,29.451,29.451,29.451h421.806
	c16.239,0,29.451-13.212,29.451-29.451V145.167c0-16.239-13.212-29.451-29.451-29.451H45.096z"/>
<path d="M48.035,140.1v79.691h95.702V140.1H48.035z M63.68,204.146v-16.297h15.962v-15.645H63.68v-16.457h64.411v16.457h-16.116
	v15.645h16.116v16.297H63.68z"/>
<rect x="47.312" y="324.486" style="fill:#75C0C7;" width="160.627" height="15.645"/>
<rect x="224.627" y="324.486" width="55.281" height="15.645"/>
<rect x="47.312" y="355.777" width="105.346" height="15.645"/>
<rect x="168.303" y="355.777" style="fill:#75C0C7;" width="22.947" height="15.645"/>
<rect x="207.939" y="355.777" width="88.658" height="15.645"/>
<g>
	<rect x="47.312" y="268.163" style="fill:#FFFFFF;" width="16.688" height="15.645"/>
	<rect x="72.345" y="268.163" style="fill:#FFFFFF;" width="15.645" height="15.645"/>
	<rect x="95.291" y="268.163" style="fill:#FFFFFF;" width="16.688" height="15.645"/>
	<rect x="119.281" y="268.163" style="fill:#FFFFFF;" width="16.688" height="15.645"/>
	<rect x="152.658" y="268.163" style="fill:#FFFFFF;" width="15.645" height="15.645"/>
	<rect x="175.605" y="268.163" style="fill:#FFFFFF;" width="15.645" height="15.645"/>
	<rect x="199.594" y="268.163" style="fill:#FFFFFF;" width="16.688" height="15.645"/>
	<rect x="224.627" y="268.163" style="fill:#FFFFFF;" width="15.645" height="15.645"/>
	<rect x="255.918" y="268.163" style="fill:#FFFFFF;" width="15.645" height="15.645"/>
	<rect x="279.908" y="268.163" style="fill:#FFFFFF;" width="16.688" height="15.645"/>
	<rect x="303.898" y="268.163" style="fill:#FFFFFF;" width="16.688" height="15.645"/>
	<rect x="327.887" y="268.163" style="fill:#FFFFFF;" width="15.645" height="15.645"/>
	<rect x="351.877" y="268.163" style="fill:#FFFFFF;" width="15.645" height="15.645"/>
	<rect x="376.91" y="268.163" style="fill:#FFFFFF;" width="15.645" height="15.645"/>
	<rect x="399.856" y="268.163" style="fill:#FFFFFF;" width="16.688" height="15.645"/>
	<rect x="423.846" y="268.163" style="fill:#FFFFFF;" width="15.645" height="15.645"/>
</g>
<rect x="336.231" y="140.913" style="fill:#75C0C7;" width="128.293" height="15.645"/>
<rect x="408.201" y="163.86" width="56.324" height="15.645"/>
<path d="M471.972,371.9H344.245v-47.669h127.726V371.9z M359.891,356.254h96.436v-16.378h-96.434v16.378H359.891z"/>
<g>
</g>
<g>
</g>
<g>
</g>
<g>
</g>
<g>
</g>
<g>
</g>
<g>
</g>
<g>
</g>
<g>
</g>
<g>
</g>
<g>
</g>
<g>
</g>
<g>
</g>
<g>
</g>
<g>
</g>
</svg>
